<svg xmlns="http://www.w3.org/2000/svg" width="205.513" height="46.554"><path d="m1107.19 1780.04-17.74-44.21H1114l-6.73 44.39-.08-.18zm-93.98-101.49 72.77 149.83H1141l30.68-149.83h-48.3l-3.56 19.97h-46.86l-10.78-19.97h-48.97zm181.34 0 21.08 149.83h48.67l-21.07-149.83h-48.68zm323.71 101.67-17.81-44.39h24.54l-6.73 44.39zm-94.06-101.67 72.78 149.83h55.01l30.69-149.83h-48.31l-3.55 19.97h-46.87l-10.78-19.97h-48.97M1316.6 1748.61h60.99l41.79-69.21h-61l-41.78 69.21" style="fill:#0070af;fill-opacity:1;fill-rule:evenodd;stroke:none" transform="matrix(.3 0 0 -.3 -269.291 549.458)"/><path d="M1322.94 1759.24h63.04l54.75 68.92h-63.04l-54.75-68.92M1259.91 1678.98h63.03l54.75 69.76h-63.04l-54.74-69.76" style="fill:#f6822a;fill-opacity:1;fill-rule:evenodd;stroke:none" transform="matrix(.3 0 0 -.3 -269.291 549.458)"/><path d="M1282.64 1829h58.83l40.31-69.76h-58.84l-40.3 69.76M1014.65 1823.02l-4.68-44.07c-17.939 24.75-59.517 7.67-62.782-23.16-4.149-39.13 35.867-48.25 57.642-25.21l-4.69-44.17c-6.499-3.19-12.855-5.67-19.128-7.34-6.239-1.68-12.492-2.57-18.696-2.7-7.8-.17-14.867.65-21.234 2.44-6.367 1.76-12.129 4.56-17.227 8.34-9.832 7.19-16.941 16.33-21.32 27.45-4.379 11.16-5.82 23.75-4.328 37.82 1.203 11.31 4.051 21.62 8.59 30.97 4.5 9.34 10.734 17.84 18.672 25.54 7.504 7.34 15.676 12.88 24.519 16.64 8.809 3.73 18.422 5.72 28.813 5.94 6.207.13 12.297-.49 18.207-1.92 5.942-1.42 11.802-3.64 17.642-6.57" style="fill:#0070af;fill-opacity:1;fill-rule:evenodd;stroke:none" transform="matrix(.3 0 0 -.3 -269.291 549.458)"/></svg>